# xmcd
#
# Track frame offsets:
#	150
#	6132
#	9644
#	13125
#	15004
#	16848
#	19180
#	21280
#	23616
#	26348
#	28178
#	29663
#	32795
#	34914
#	37034
#	38901
#	43422
#	45347
#	48575
#	67681
#	86791
#	91156
#	92661
#	95031
#	115973
#	136971
#	142836
#	146279
#	149729
#	170852
#	192147
#	198012
#	200373
#	202688
#	204896
#	207131
#	209252
#	227112
#	244922
#	250187
#	252937
#	270063
#	280247
#	288772
#	296798
#
# Disc length: 4053
#
# Revision: 2
# Processed by: cddbd v1.5.1PL0 Copyright (c) Steve Scherf et al.
# Submitted via: audiograbber 1.80
# Normalized: r1:TRMNUM
#
DISCID=6c0fd32d
DTITLE=Guitar Masterclass - Play In The Style Of Jimi Hendrix
DYEAR=1900
DGENRE=
TTITLE0=Opening - Übung 1 slow/fast
TTITLE1=Übung 2 slow/fast
TTITLE2=Übung 3 slow/fast
TTITLE3=Übung 4
TTITLE4=Übung 5
TTITLE5=Übung 6
TTITLE6=Übung 7
TTITLE7=Übung 8
TTITLE8=Übung 9
TTITLE9=Übung 10
TTITLE10=Übung 11
TTITLE11=Übung 12
TTITLE12=Übung 13
TTITLE13=Übung 14
TTITLE14=Übung 15
TTITLE15=Jimi Hendrix-Style Song 1
TTITLE16=Rythm Guitar - Song 1
TTITLE17=Solo Guitar - Song 1
TTITLE18=Play Along Rythm - Song 1
TTITLE19=Play Along Solo - Song 1
TTITLE20=Jimi Hendrix-Style Song 2
TTITLE21=Wah-Wah Rythm - Song 2
TTITLE22=Solo Guitar - Song 2
TTITLE23=Play Along Rythm - Song 2
TTITLE24=Play Along Solo - Song 2
TTITLE25=Jimi Hendrix-Style Song 3
TTITLE26=Rythm Guitar - Song 3
TTITLE27=Solo Guitar - Song 3
TTITLE28=Play Along Rythm - Song 3
TTITLE29=Play Along Solo - Song 3
TTITLE30=Jimi Hendrix-Style - Song 4
TTITLE31=Rythm Guitar -Sing 4
TTITLE32=Solo Lick 1 - Song 4
TTITLE33=Solo Lick 2 - Song 4
TTITLE34=Solo Lick 3 - Song 4
TTITLE35=Solo Lick 4 - Song 4
TTITLE36=Play Along Rythm - Song 4
TTITLE37=Play Along Solo - Song 4
TTITLE38=Jimi Hendrix-Style Song 5
TTITLE39=Solo Guitar - Song 5
TTITLE40=Play Along Solo - Song 5
TTITLE41=Play Along (Drums) Slow
TTITLE42=Play Along (Drums) Medium
TTITLE43=Play Along (Drums) Fast
TTITLE44=Stimmtöne
EXTD=
EXTT0=
EXTT1=
EXTT2=
EXTT3=
EXTT4=
EXTT5=
EXTT6=
EXTT7=
EXTT8=
EXTT9=
EXTT10=
EXTT11=
EXTT12=
EXTT13=
EXTT14=
EXTT15=
EXTT16=
EXTT17=
EXTT18=
EXTT19=
EXTT20=
EXTT21=
EXTT22=
EXTT23=
EXTT24=
EXTT25=
EXTT26=
EXTT27=
EXTT28=
EXTT29=
EXTT30=
EXTT31=
EXTT32=
EXTT33=
EXTT34=
EXTT35=
EXTT36=
EXTT37=
EXTT38=
EXTT39=
EXTT40=
EXTT41=
EXTT42=
EXTT43=
EXTT44=
PLAYORDER=
